STARTFONT 2.1
COMMENT $XFree86$
COMMENT  
COMMENT  Copyright 1989 Dale Schumacher, dal@syntel.mn.org
COMMENT                 399 Beacon Ave.
COMMENT                 St. Paul, MN  55104-3527
COMMENT  
COMMENT  Permission to use, copy, modify, and distribute this software and
COMMENT  its documentation for any purpose and without fee is hereby
COMMENT  granted, provided that the above copyright notice appear in all
COMMENT  copies and that both that copyright notice and this permission
COMMENT  notice appear in supporting documentation, and that the name of
COMMENT  Dale Schumacher not be used in advertising or publicity pertaining to
COMMENT  distribution of the software without specific, written prior
COMMENT  permission.  Dale Schumacher makes no representations about the
COMMENT  suitability of this software for any purpose.  It is provided "as
COMMENT  is" without express or implied warranty.
COMMENT  
FONT -Schumacher-Clean-Medium-R-Normal--6-60-75-75-C-60-ISO646.1991-IRV
SIZE 6 75 75
FONTBOUNDINGBOX 6 6 0 -1
STARTPROPERTIES 19
FONTNAME_REGISTRY ""
FOUNDRY "Schumacher"
FAMILY_NAME "Clean"
WEIGHT_NAME "Medium"
SLANT "R"
SETWIDTH_NAME "Normal"
ADD_STYLE_NAME ""
PIXEL_SIZE 6
POINT_SIZE 60
RESOLUTION_X 75
RESOLUTION_Y 75
SPACING "C"
AVERAGE_WIDTH 60
CHARSET_REGISTRY "ISO646.1991"
CHARSET_ENCODING "IRV"
FONT_ASCENT 5
FONT_DESCENT 1
DEFAULT_CHAR 0
COPYRIGHT "Copyright 1989 Dale Schumacher."
ENDPROPERTIES
CHARS 128
STARTCHAR C000
ENCODING 0
SWIDTH 666 0
DWIDTH 6 0
BBX 6 6 0 -1
BITMAP
7c
44
7c
44
fe
7c
ENDCHAR
STARTCHAR C001
ENCODING 1
SWIDTH 666 0
DWIDTH 6 0
BBX 6 6 0 -1
BITMAP
10
28
38
28
28
00
ENDCHAR
STARTCHAR C002
ENCODING 2
SWIDTH 666 0
DWIDTH 6 0
BBX 6 6 0 -1
BITMAP
30
28
30
28
30
00
ENDCHAR
STARTCHAR C003
ENCODING 3
SWIDTH 666 0
DWIDTH 6 0
BBX 6 6 0 -1
BITMAP
18
20
20
20
18
00
ENDCHAR
STARTCHAR C004
ENCODING 4
SWIDTH 666 0
DWIDTH 6 0
BBX 6 6 0 -1
BITMAP
30
28
28
28
30
00
ENDCHAR
STARTCHAR C005
ENCODING 5
SWIDTH 666 0
DWIDTH 6 0
BBX 6 6 0 -1
BITMAP
38
20
30
20
38
00
ENDCHAR
STARTCHAR C006
ENCODING 6
SWIDTH 666 0
DWIDTH 6 0
BBX 6 6 0 -1
BITMAP
38
20
30
20
20
00
ENDCHAR
STARTCHAR C007
ENCODING 7
SWIDTH 666 0
DWIDTH 6 0
BBX 6 6 0 -1
BITMAP
18
20
28
28
18
00
ENDCHAR
STARTCHAR C010
ENCODING 8
SWIDTH 666 0
DWIDTH 6 0
BBX 6 6 0 -1
BITMAP
28
28
38
28
28
00
ENDCHAR
STARTCHAR C011
ENCODING 9
SWIDTH 666 0
DWIDTH 6 0
BBX 6 6 0 -1
BITMAP
38
10
10
10
38
00
ENDCHAR
STARTCHAR C012
ENCODING 10
SWIDTH 666 0
DWIDTH 6 0
BBX 6 6 0 -1
BITMAP
08
08
08
28
10
00
ENDCHAR
STARTCHAR C013
ENCODING 11
SWIDTH 666 0
DWIDTH 6 0
BBX 6 6 0 -1
BITMAP
28
28
30
28
28
00
ENDCHAR
STARTCHAR C014
ENCODING 12
SWIDTH 666 0
DWIDTH 6 0
BBX 6 6 0 -1
BITMAP
20
20
20
20
38
00
ENDCHAR
STARTCHAR C015
ENCODING 13
SWIDTH 666 0
DWIDTH 6 0
BBX 6 6 0 -1
BITMAP
28
38
38
28
28
00
ENDCHAR
STARTCHAR C016
ENCODING 14
SWIDTH 666 0
DWIDTH 6 0
BBX 6 6 0 -1
BITMAP
28
38
38
38
28
00
ENDCHAR
STARTCHAR C017
ENCODING 15
SWIDTH 666 0
DWIDTH 6 0
BBX 6 6 0 -1
BITMAP
10
28
28
28
10
00
ENDCHAR
STARTCHAR C020
ENCODING 16
SWIDTH 666 0
DWIDTH 6 0
BBX 6 6 0 -1
BITMAP
30
28
30
20
20
00
ENDCHAR
STARTCHAR C021
ENCODING 17
SWIDTH 666 0
DWIDTH 6 0
BBX 6 6 0 -1
BITMAP
10
28
28
30
18
00
ENDCHAR
STARTCHAR C022
ENCODING 18
SWIDTH 666 0
DWIDTH 6 0
BBX 6 6 0 -1
BITMAP
30
28
30
28
28
00
ENDCHAR
STARTCHAR C023
ENCODING 19
SWIDTH 666 0
DWIDTH 6 0
BBX 6 6 0 -1
BITMAP
18
20
10
08
30
00
ENDCHAR
STARTCHAR C024
ENCODING 20
SWIDTH 666 0
DWIDTH 6 0
BBX 6 6 0 -1
BITMAP
38
10
10
10
10
00
ENDCHAR
STARTCHAR C025
ENCODING 21
SWIDTH 666 0
DWIDTH 6 0
BBX 6 6 0 -1
BITMAP
28
28
28
28
38
00
ENDCHAR
STARTCHAR C026
ENCODING 22
SWIDTH 666 0
DWIDTH 6 0
BBX 6 6 0 -1
BITMAP
28
28
28
28
10
00
ENDCHAR
STARTCHAR C027
ENCODING 23
SWIDTH 666 0
DWIDTH 6 0
BBX 6 6 0 -1
BITMAP
28
28
38
38
28
00
ENDCHAR
STARTCHAR C030
ENCODING 24
SWIDTH 666 0
DWIDTH 6 0
BBX 6 6 0 -1
BITMAP
28
28
10
28
28
00
ENDCHAR
STARTCHAR C031
ENCODING 25
SWIDTH 666 0
DWIDTH 6 0
BBX 6 6 0 -1
BITMAP
28
28
10
10
10
00
ENDCHAR
STARTCHAR C032
ENCODING 26
SWIDTH 666 0
DWIDTH 6 0
BBX 6 6 0 -1
BITMAP
38
08
10
20
38
00
ENDCHAR
STARTCHAR C033
ENCODING 27
SWIDTH 666 0
DWIDTH 6 0
BBX 6 6 0 -1
BITMAP
ec
90
d0
90
ec
00
ENDCHAR
STARTCHAR C034
ENCODING 28
SWIDTH 666 0
DWIDTH 6 0
BBX 6 6 0 -1
BITMAP
10
38
7c
10
10
10
ENDCHAR
STARTCHAR C035
ENCODING 29
SWIDTH 666 0
DWIDTH 6 0
BBX 6 6 0 -1
BITMAP
10
10
10
7c
38
10
ENDCHAR
STARTCHAR C036
ENCODING 30
SWIDTH 666 0
DWIDTH 6 0
BBX 6 6 0 -1
BITMAP
10
18
fc
18
10
00
ENDCHAR
STARTCHAR C037
ENCODING 31
SWIDTH 666 0
DWIDTH 6 0
BBX 6 6 0 -1
BITMAP
20
60
fc
60
20
00
ENDCHAR
STARTCHAR C040
ENCODING 32
SWIDTH 666 0
DWIDTH 6 0
BBX 6 6 0 -1
BITMAP
00
00
00
00
00
00
ENDCHAR
STARTCHAR !
ENCODING 33
SWIDTH 666 0
DWIDTH 6 0
BBX 6 6 0 -1
BITMAP
10
10
10
00
10
00
ENDCHAR
STARTCHAR "
ENCODING 34
SWIDTH 666 0
DWIDTH 6 0
BBX 6 6 0 -1
BITMAP
28
28
00
00
00
00
ENDCHAR
STARTCHAR #
ENCODING 35
SWIDTH 666 0
DWIDTH 6 0
BBX 6 6 0 -1
BITMAP
28
7c
28
7c
28
00
ENDCHAR
STARTCHAR $
ENCODING 36
SWIDTH 666 0
DWIDTH 6 0
BBX 6 6 0 -1
BITMAP
38
50
38
14
38
00
ENDCHAR
STARTCHAR %
ENCODING 37
SWIDTH 666 0
DWIDTH 6 0
BBX 6 6 0 -1
BITMAP
64
68
10
2c
4c
00
ENDCHAR
STARTCHAR &
ENCODING 38
SWIDTH 666 0
DWIDTH 6 0
BBX 6 6 0 -1
BITMAP
30
40
34
48
34
00
ENDCHAR
STARTCHAR '
ENCODING 39
SWIDTH 666 0
DWIDTH 6 0
BBX 6 6 0 -1
BITMAP
10
20
00
00
00
00
ENDCHAR
STARTCHAR (
ENCODING 40
SWIDTH 666 0
DWIDTH 6 0
BBX 6 6 0 -1
BITMAP
08
10
10
10
08
00
ENDCHAR
STARTCHAR )
ENCODING 41
SWIDTH 666 0
DWIDTH 6 0
BBX 6 6 0 -1
BITMAP
20
10
10
10
20
00
ENDCHAR
STARTCHAR *
ENCODING 42
SWIDTH 666 0
DWIDTH 6 0
BBX 6 6 0 -1
BITMAP
10
54
38
54
10
00
ENDCHAR
STARTCHAR +
ENCODING 43
SWIDTH 666 0
DWIDTH 6 0
BBX 6 6 0 -1
BITMAP
10
10
7c
10
10
00
ENDCHAR
STARTCHAR ,
ENCODING 44
SWIDTH 666 0
DWIDTH 6 0
BBX 6 6 0 -1
BITMAP
00
00
00
10
10
20
ENDCHAR
STARTCHAR -
ENCODING 45
SWIDTH 666 0
DWIDTH 6 0
BBX 6 6 0 -1
BITMAP
00
00
7c
00
00
00
ENDCHAR
STARTCHAR .
ENCODING 46
SWIDTH 666 0
DWIDTH 6 0
BBX 6 6 0 -1
BITMAP
00
00
00
10
10
00
ENDCHAR
STARTCHAR /
ENCODING 47
SWIDTH 666 0
DWIDTH 6 0
BBX 6 6 0 -1
BITMAP
04
08
10
20
40
00
ENDCHAR
STARTCHAR 0
ENCODING 48
SWIDTH 666 0
DWIDTH 6 0
BBX 6 6 0 -1
BITMAP
38
4c
54
64
38
00
ENDCHAR
STARTCHAR 1
ENCODING 49
SWIDTH 666 0
DWIDTH 6 0
BBX 6 6 0 -1
BITMAP
10
30
10
10
10
00
ENDCHAR
STARTCHAR 2
ENCODING 50
SWIDTH 666 0
DWIDTH 6 0
BBX 6 6 0 -1
BITMAP
78
04
38
40
7c
00
ENDCHAR
STARTCHAR 3
ENCODING 51
SWIDTH 666 0
DWIDTH 6 0
BBX 6 6 0 -1
BITMAP
78
04
38
04
78
00
ENDCHAR
STARTCHAR 4
ENCODING 52
SWIDTH 666 0
DWIDTH 6 0
BBX 6 6 0 -1
BITMAP
0c
14
24
7c
04
00
ENDCHAR
STARTCHAR 5
ENCODING 53
SWIDTH 666 0
DWIDTH 6 0
BBX 6 6 0 -1
BITMAP
7c
40
78
04
78
00
ENDCHAR
STARTCHAR 6
ENCODING 54
SWIDTH 666 0
DWIDTH 6 0
BBX 6 6 0 -1
BITMAP
38
40
78
44
38
00
ENDCHAR
STARTCHAR 7
ENCODING 55
SWIDTH 666 0
DWIDTH 6 0
BBX 6 6 0 -1
BITMAP
7c
04
08
10
20
00
ENDCHAR
STARTCHAR 8
ENCODING 56
SWIDTH 666 0
DWIDTH 6 0
BBX 6 6 0 -1
BITMAP
38
44
38
44
38
00
ENDCHAR
STARTCHAR 9
ENCODING 57
SWIDTH 666 0
DWIDTH 6 0
BBX 6 6 0 -1
BITMAP
38
44
3c
04
38
00
ENDCHAR
STARTCHAR :
ENCODING 58
SWIDTH 666 0
DWIDTH 6 0
BBX 6 6 0 -1
BITMAP
10
10
00
10
10
00
ENDCHAR
STARTCHAR ;
ENCODING 59
SWIDTH 666 0
DWIDTH 6 0
BBX 6 6 0 -1
BITMAP
10
10
00
10
10
20
ENDCHAR
STARTCHAR <
ENCODING 60
SWIDTH 666 0
DWIDTH 6 0
BBX 6 6 0 -1
BITMAP
0c
30
c0
30
0c
00
ENDCHAR
STARTCHAR =
ENCODING 61
SWIDTH 666 0
DWIDTH 6 0
BBX 6 6 0 -1
BITMAP
00
7c
00
7c
00
00
ENDCHAR
STARTCHAR >
ENCODING 62
SWIDTH 666 0
DWIDTH 6 0
BBX 6 6 0 -1
BITMAP
c0
30
0c
30
c0
00
ENDCHAR
STARTCHAR ?
ENCODING 63
SWIDTH 666 0
DWIDTH 6 0
BBX 6 6 0 -1
BITMAP
70
08
30
00
20
00
ENDCHAR
STARTCHAR @
ENCODING 64
SWIDTH 666 0
DWIDTH 6 0
BBX 6 6 0 -1
BITMAP
30
58
58
40
30
00
ENDCHAR
STARTCHAR A
ENCODING 65
SWIDTH 666 0
DWIDTH 6 0
BBX 6 6 0 -1
BITMAP
10
28
44
7c
44
00
ENDCHAR
STARTCHAR B
ENCODING 66
SWIDTH 666 0
DWIDTH 6 0
BBX 6 6 0 -1
BITMAP
78
44
78
44
78
00
ENDCHAR
STARTCHAR C
ENCODING 67
SWIDTH 666 0
DWIDTH 6 0
BBX 6 6 0 -1
BITMAP
38
44
40
44
38
00
ENDCHAR
STARTCHAR D
ENCODING 68
SWIDTH 666 0
DWIDTH 6 0
BBX 6 6 0 -1
BITMAP
78
44
44
44
78
00
ENDCHAR
STARTCHAR E
ENCODING 69
SWIDTH 666 0
DWIDTH 6 0
BBX 6 6 0 -1
BITMAP
7c
40
78
40
7c
00
ENDCHAR
STARTCHAR F
ENCODING 70
SWIDTH 666 0
DWIDTH 6 0
BBX 6 6 0 -1
BITMAP
7c
40
78
40
40
00
ENDCHAR
STARTCHAR G
ENCODING 71
SWIDTH 666 0
DWIDTH 6 0
BBX 6 6 0 -1
BITMAP
3c
40
4c
44
3c
00
ENDCHAR
STARTCHAR H
ENCODING 72
SWIDTH 666 0
DWIDTH 6 0
BBX 6 6 0 -1
BITMAP
44
44
7c
44
44
00
ENDCHAR
STARTCHAR I
ENCODING 73
SWIDTH 666 0
DWIDTH 6 0
BBX 6 6 0 -1
BITMAP
38
10
10
10
38
00
ENDCHAR
STARTCHAR J
ENCODING 74
SWIDTH 666 0
DWIDTH 6 0
BBX 6 6 0 -1
BITMAP
1c
04
04
44
38
00
ENDCHAR
STARTCHAR K
ENCODING 75
SWIDTH 666 0
DWIDTH 6 0
BBX 6 6 0 -1
BITMAP
48
50
60
50
48
00
ENDCHAR
STARTCHAR L
ENCODING 76
SWIDTH 666 0
DWIDTH 6 0
BBX 6 6 0 -1
BITMAP
40
40
40
40
7c
00
ENDCHAR
STARTCHAR M
ENCODING 77
SWIDTH 666 0
DWIDTH 6 0
BBX 6 6 0 -1
BITMAP
44
6c
54
54
44
00
ENDCHAR
STARTCHAR N
ENCODING 78
SWIDTH 666 0
DWIDTH 6 0
BBX 6 6 0 -1
BITMAP
44
64
54
4c
44
00
ENDCHAR
STARTCHAR O
ENCODING 79
SWIDTH 666 0
DWIDTH 6 0
BBX 6 6 0 -1
BITMAP
38
44
44
44
38
00
ENDCHAR
STARTCHAR P
ENCODING 80
SWIDTH 666 0
DWIDTH 6 0
BBX 6 6 0 -1
BITMAP
78
44
78
40
40
00
ENDCHAR
STARTCHAR Q
ENCODING 81
SWIDTH 666 0
DWIDTH 6 0
BBX 6 6 0 -1
BITMAP
38
44
44
44
38
0c
ENDCHAR
STARTCHAR R
ENCODING 82
SWIDTH 666 0
DWIDTH 6 0
BBX 6 6 0 -1
BITMAP
78
44
78
50
4c
00
ENDCHAR
STARTCHAR S
ENCODING 83
SWIDTH 666 0
DWIDTH 6 0
BBX 6 6 0 -1
BITMAP
3c
40
38
04
78
00
ENDCHAR
STARTCHAR T
ENCODING 84
SWIDTH 666 0
DWIDTH 6 0
BBX 6 6 0 -1
BITMAP
7c
10
10
10
10
00
ENDCHAR
STARTCHAR U
ENCODING 85
SWIDTH 666 0
DWIDTH 6 0
BBX 6 6 0 -1
BITMAP
44
44
44
44
38
00
ENDCHAR
STARTCHAR V
ENCODING 86
SWIDTH 666 0
DWIDTH 6 0
BBX 6 6 0 -1
BITMAP
44
44
28
28
10
00
ENDCHAR
STARTCHAR W
ENCODING 87
SWIDTH 666 0
DWIDTH 6 0
BBX 6 6 0 -1
BITMAP
44
54
54
6c
44
00
ENDCHAR
STARTCHAR X
ENCODING 88
SWIDTH 666 0
DWIDTH 6 0
BBX 6 6 0 -1
BITMAP
44
28
10
28
44
00
ENDCHAR
STARTCHAR Y
ENCODING 89
SWIDTH 666 0
DWIDTH 6 0
BBX 6 6 0 -1
BITMAP
44
28
10
10
10
00
ENDCHAR
STARTCHAR Z
ENCODING 90
SWIDTH 666 0
DWIDTH 6 0
BBX 6 6 0 -1
BITMAP
7c
08
10
20
7c
00
ENDCHAR
STARTCHAR [
ENCODING 91
SWIDTH 666 0
DWIDTH 6 0
BBX 6 6 0 -1
BITMAP
1c
10
10
10
1c
00
ENDCHAR
STARTCHAR \
ENCODING 92
SWIDTH 666 0
DWIDTH 6 0
BBX 6 6 0 -1
BITMAP
40
20
10
08
04
00
ENDCHAR
STARTCHAR ]
ENCODING 93
SWIDTH 666 0
DWIDTH 6 0
BBX 6 6 0 -1
BITMAP
70
10
10
10
70
00
ENDCHAR
STARTCHAR ^
ENCODING 94
SWIDTH 666 0
DWIDTH 6 0
BBX 6 6 0 -1
BITMAP
10
28
44
00
00
00
ENDCHAR
STARTCHAR _
ENCODING 95
SWIDTH 666 0
DWIDTH 6 0
BBX 6 6 0 -1
BITMAP
00
00
00
00
00
7c
ENDCHAR
STARTCHAR `
ENCODING 96
SWIDTH 666 0
DWIDTH 6 0
BBX 6 6 0 -1
BITMAP
10
08
00
00
00
00
ENDCHAR
STARTCHAR a
ENCODING 97
SWIDTH 666 0
DWIDTH 6 0
BBX 6 6 0 -1
BITMAP
00
3c
44
4c
34
00
ENDCHAR
STARTCHAR b
ENCODING 98
SWIDTH 666 0
DWIDTH 6 0
BBX 6 6 0 -1
BITMAP
40
78
44
44
78
00
ENDCHAR
STARTCHAR c
ENCODING 99
SWIDTH 666 0
DWIDTH 6 0
BBX 6 6 0 -1
BITMAP
00
38
40
40
38
00
ENDCHAR
STARTCHAR d
ENCODING 100
SWIDTH 666 0
DWIDTH 6 0
BBX 6 6 0 -1
BITMAP
04
3c
44
44
3c
00
ENDCHAR
STARTCHAR e
ENCODING 101
SWIDTH 666 0
DWIDTH 6 0
BBX 6 6 0 -1
BITMAP
00
38
7c
40
38
00
ENDCHAR
STARTCHAR f
ENCODING 102
SWIDTH 666 0
DWIDTH 6 0
BBX 6 6 0 -1
BITMAP
1c
20
78
20
20
00
ENDCHAR
STARTCHAR g
ENCODING 103
SWIDTH 666 0
DWIDTH 6 0
BBX 6 6 0 -1
BITMAP
00
3c
44
3c
04
38
ENDCHAR
STARTCHAR h
ENCODING 104
SWIDTH 666 0
DWIDTH 6 0
BBX 6 6 0 -1
BITMAP
40
78
44
44
44
00
ENDCHAR
STARTCHAR i
ENCODING 105
SWIDTH 666 0
DWIDTH 6 0
BBX 6 6 0 -1
BITMAP
10
00
10
10
10
00
ENDCHAR
STARTCHAR j
ENCODING 106
SWIDTH 666 0
DWIDTH 6 0
BBX 6 6 0 -1
BITMAP
08
00
08
08
48
30
ENDCHAR
STARTCHAR k
ENCODING 107
SWIDTH 666 0
DWIDTH 6 0
BBX 6 6 0 -1
BITMAP
40
58
60
50
48
00
ENDCHAR
STARTCHAR l
ENCODING 108
SWIDTH 666 0
DWIDTH 6 0
BBX 6 6 0 -1
BITMAP
30
10
10
10
38
00
ENDCHAR
STARTCHAR m
ENCODING 109
SWIDTH 666 0
DWIDTH 6 0
BBX 6 6 0 -1
BITMAP
00
68
54
54
44
00
ENDCHAR
STARTCHAR n
ENCODING 110
SWIDTH 666 0
DWIDTH 6 0
BBX 6 6 0 -1
BITMAP
00
58
64
44
44
00
ENDCHAR
STARTCHAR o
ENCODING 111
SWIDTH 666 0
DWIDTH 6 0
BBX 6 6 0 -1
BITMAP
00
38
44
44
38
00
ENDCHAR
STARTCHAR p
ENCODING 112
SWIDTH 666 0
DWIDTH 6 0
BBX 6 6 0 -1
BITMAP
00
78
44
44
78
40
ENDCHAR
STARTCHAR q
ENCODING 113
SWIDTH 666 0
DWIDTH 6 0
BBX 6 6 0 -1
BITMAP
00
3c
44
44
3c
04
ENDCHAR
STARTCHAR r
ENCODING 114
SWIDTH 666 0
DWIDTH 6 0
BBX 6 6 0 -1
BITMAP
00
58
60
40
40
00
ENDCHAR
STARTCHAR s
ENCODING 115
SWIDTH 666 0
DWIDTH 6 0
BBX 6 6 0 -1
BITMAP
00
3c
70
1c
78
00
ENDCHAR
STARTCHAR t
ENCODING 116
SWIDTH 666 0
DWIDTH 6 0
BBX 6 6 0 -1
BITMAP
20
78
20
20
18
00
ENDCHAR
STARTCHAR u
ENCODING 117
SWIDTH 666 0
DWIDTH 6 0
BBX 6 6 0 -1
BITMAP
00
44
44
4c
34
00
ENDCHAR
STARTCHAR v
ENCODING 118
SWIDTH 666 0
DWIDTH 6 0
BBX 6 6 0 -1
BITMAP
00
44
28
28
10
00
ENDCHAR
STARTCHAR w
ENCODING 119
SWIDTH 666 0
DWIDTH 6 0
BBX 6 6 0 -1
BITMAP
00
44
54
54
28
00
ENDCHAR
STARTCHAR x
ENCODING 120
SWIDTH 666 0
DWIDTH 6 0
BBX 6 6 0 -1
BITMAP
00
48
30
30
48
00
ENDCHAR
STARTCHAR y
ENCODING 121
SWIDTH 666 0
DWIDTH 6 0
BBX 6 6 0 -1
BITMAP
00
44
44
3c
04
38
ENDCHAR
STARTCHAR z
ENCODING 122
SWIDTH 666 0
DWIDTH 6 0
BBX 6 6 0 -1
BITMAP
00
78
10
20
78
00
ENDCHAR
STARTCHAR {
ENCODING 123
SWIDTH 666 0
DWIDTH 6 0
BBX 6 6 0 -1
BITMAP
08
10
30
10
08
00
ENDCHAR
STARTCHAR |
ENCODING 124
SWIDTH 666 0
DWIDTH 6 0
BBX 6 6 0 -1
BITMAP
10
10
10
10
10
00
ENDCHAR
STARTCHAR }
ENCODING 125
SWIDTH 666 0
DWIDTH 6 0
BBX 6 6 0 -1
BITMAP
20
10
18
10
20
00
ENDCHAR
STARTCHAR ~
ENCODING 126
SWIDTH 666 0
DWIDTH 6 0
BBX 6 6 0 -1
BITMAP
20
54
08
00
00
00
ENDCHAR
STARTCHAR C177
ENCODING 127
SWIDTH 666 0
DWIDTH 6 0
BBX 6 6 0 -1
BITMAP
00
10
28
44
7c
00
ENDCHAR
ENDFONT
